<?xml version="1.0" encoding="UTF-8" standalone="no"?>
<svg
   width="147px"
   height="32px"
   viewBox="0 0 147 32"
   version="1.1"
   id="svg16"
   sodipodi:docname="button.svg"
   inkscape:version="1.1.2 (0a00cf5339, 2022-02-04)"
   xmlns:inkscape="http://www.inkscape.org/namespaces/inkscape"
   xmlns:sodipodi="http://sodipodi.sourceforge.net/DTD/sodipodi-0.dtd"
   xmlns="http://www.w3.org/2000/svg"
   xmlns:svg="http://www.w3.org/2000/svg"
   xmlns:sketch="http://www.bohemiancoding.com/sketch/ns">
  <sodipodi:namedview
     id="namedview18"
     pagecolor="#ffffff"
     bordercolor="#666666"
     borderopacity="1.0"
     inkscape:pageshadow="2"
     inkscape:pageopacity="0.0"
     inkscape:pagecheckerboard="0"
     showgrid="false"
     inkscape:zoom="9.2380952"
     inkscape:cx="79.291237"
     inkscape:cy="15.966495"
     inkscape:window-width="1920"
     inkscape:window-height="1012"
     inkscape:window-x="0"
     inkscape:window-y="32"
     inkscape:window-maximized="1"
     inkscape:current-layer="svg16" />
  <!-- Generator: Sketch 3.0.4 (8053) - http://www.bohemiancoding.com/sketch -->
  <title
     id="title2">button</title>
  <desc
     id="desc4">Created with Sketch.</desc>
  <defs
     id="defs6" />
  <g
     id="g27850">
    <rect
       id="Background"
       fill="#7056bf"
       sketch:type="MSShapeGroup"
       x="0"
       y="0"
       width="147"
       height="32"
       rx="4"
       style="fill-rule:evenodd;stroke:none;stroke-width:1" />
    <g
       id="Icon"
       transform="translate(10,8)"
       fill="#ffffff"
       sketch:type="MSShapeGroup"
       style="fill-rule:evenodd;stroke:none;stroke-width:1">
      <path
         d="M 14.819,3.216 9.103,0.25 C 8.464,-0.082 7.536,-0.081 6.898,0.25 L 1.181,3.216 C 0.496,3.571 0,4.365 0,5.102 v 5.933 c 0,0.739 0.497,1.531 1.181,1.886 l 2.858,1.483 c 0.49,0.252 1.095,0.063 1.349,-0.426 0.254,-0.491 0.063,-1.094 -0.427,-1.349 L 2.106,11.148 C 2.068,11.124 2.008,11.039 2,11.035 L 1.996,5.143 C 2.008,5.098 2.068,5.013 2.103,4.991 L 7.816,2.026 C 7.897,1.991 8.106,1.992 8.181,2.025 l 5.713,2.964 C 13.932,5.013 13.992,5.098 14,5.102 l 0.003,5.893 c -0.011,0.044 -0.071,0.129 -0.105,0.151 l -2.859,1.483 c -0.49,0.255 -0.681,0.858 -0.427,1.349 0.178,0.342 0.528,0.539 0.889,0.539 0.155,0 0.313,-0.036 0.46,-0.113 l 2.857,-1.483 C 15.503,12.566 16,11.774 16,11.035 V 5.102 C 16,4.365 15.504,3.571 14.819,3.216"
         id="App" />
      <path
         d="m 11.707,9.707 c 0.391,-0.391 0.391,-1.023 0,-1.414 L 8.708,5.294 C 8.616,5.201 8.505,5.128 8.382,5.077 8.138,4.976 7.862,4.976 7.618,5.077 7.495,5.128 7.385,5.201 7.292,5.294 L 4.293,8.293 C 3.902,8.684 3.902,9.316 4.293,9.707 4.488,9.902 4.744,10 5,10 5.256,10 5.512,9.902 5.707,9.707 L 7,8.414 V 15 c 0,0.553 0.447,1 1,1 0.553,0 1,-0.447 1,-1 V 8.414 l 1.293,1.293 C 10.488,9.902 10.744,10 11,10 c 0.256,0 0.512,-0.098 0.707,-0.293"
         id="Arrow" />
    </g>
    <g
       aria-label="部屬到"
       id="text5535"
       style="font-size:14.0296px;line-height:1.25;stroke-width:0.35074">
      <path
         id="path27786"
         style="fill:#ffffff"
         d="m 66.465055,20.391264 v -2.328913 h 2.637565 v -0.954013 h -2.637565 v -1.669523 h -1.010131 v 1.669523 H 62.77527 v 0.954013 h 2.679654 v 2.45518 c -1.234605,0.154325 -2.356973,0.294621 -3.240838,0.392829 l 0.168355,1.03819 c 1.851907,-0.266562 4.587679,-0.645362 7.197185,-1.024161 l -0.02806,-0.939983 z m 0.322681,-7.814487 c 0.364769,0.434918 0.757598,0.939983 1.108338,1.445049 -1.122368,0.05612 -2.230706,0.09821 -3.226808,0.140296 0.392829,-0.827747 0.799687,-1.865937 1.150427,-2.749802 h 3.703815 v -0.925953 h -7.155096 v 0.925953 h 2.286824 c -0.266562,0.869835 -0.659391,1.964144 -1.03819,2.791891 l -1.276694,0.05612 0.08418,0.996102 c 1.599374,-0.09821 3.85814,-0.210444 6.060787,-0.36477 0.196415,0.322681 0.35074,0.617302 0.477007,0.869835 L 69.77604,15.27046 c -0.392828,-0.855805 -1.3749,-2.160558 -2.216676,-3.128601 z m 4.335146,-1.332812 H 70.12678 v 7.71628 h 0.996102 z M 73.423736,9.9532418 V 20.966478 c 0,0.266562 -0.08418,0.33671 -0.33671,0.35074 -0.266562,0 -1.150427,0.01403 -2.062351,-0.02806 0.140296,0.308651 0.294621,0.799687 0.35074,1.080279 1.136397,0 1.964144,-0.01403 2.427121,-0.182385 0.462976,-0.182385 0.631332,-0.505065 0.631332,-1.220575 V 9.9532418 Z M 59.057453,11.005462 v 0.897894 h -8.529997 v -0.897894 z m -8.529997,1.627433 h 9.526098 V 10.275923 H 49.517325 v 4.054554 c 0,2.216677 -0.112237,5.303189 -1.459079,7.491807 0.252533,0.09821 0.687451,0.35074 0.883865,0.505065 1.38893,-2.272795 1.585345,-5.653929 1.585345,-7.996872 z m 6.215113,2.076381 h 3.170689 v -0.533125 h -3.170689 z m 0.02806,-1.613404 v 0.547155 h 3.086512 v -0.547155 z m -0.757599,1.851907 v -2.07638 h -0.968042 v 2.07638 z m -4.742004,-0.238503 h 3.002334 v -0.533125 h -3.002334 z m 0.02806,-1.613404 v 0.547155 H 54.2453 v -0.547155 z m 6.439586,7.337481 v -1.697582 h -2.581446 v -0.547154 h 4.166791 c -0.126266,2.216677 -0.280592,3.058453 -0.462977,3.296956 -0.08418,0.112237 -0.182385,0.126267 -0.35074,0.126267 -0.07015,0 -0.182385,0 -0.322681,0 -0.266562,-0.35074 -0.771628,-0.827747 -1.234604,-1.178487 z m -2.581446,0 h 1.571315 l -0.491036,0.252533 c 0.112237,0.08418 0.224474,0.182385 0.33671,0.280592 l -1.416989,0.05612 z m 1.7537,-0.533125 h -1.7537 v -0.645361 h 1.7537 z m -4.349176,0 v -0.645361 h 1.697581 v 0.645361 z m 1.697581,-1.711611 v 0.547154 h -2.006232 c 0.210444,-0.182384 0.392828,-0.364769 0.575213,-0.547154 z m -2.230706,-2.385032 h 1.73967 v 0.70148 h -1.73967 z m 2.581446,0 h 1.823848 v 0.70148 h -1.823848 z m 2.651595,0 h 1.851907 v 0.70148 h -1.851907 z m -3.87217,1.725641 c 0.126267,-0.168355 0.238503,-0.322681 0.35074,-0.491036 h 6.257202 V 15.27046 H 51.15879 v 1.76773 h 1.515197 c -0.547155,0.729539 -1.388931,1.529226 -2.511299,2.146529 0.210444,0.126266 0.533125,0.392829 0.673421,0.603273 0.33671,-0.210444 0.645362,-0.420888 0.925954,-0.645362 v 1.290723 h 2.497268 v 0.631332 c -1.248634,0.04209 -2.399061,0.07015 -3.296956,0.09821 l 0.07015,0.743569 c 1.641464,-0.07015 3.928288,-0.182385 6.173024,-0.308651 0.140296,0.154326 0.266563,0.294622 0.35074,0.420888 l 0.140296,-0.08418 c 0.02806,0.154326 0.05612,0.294622 0.07015,0.420888 0.462977,0.01403 0.911924,0.01403 1.178487,-0.01403 0.308651,-0.01403 0.533125,-0.09821 0.729539,-0.322681 0.308651,-0.36477 0.462977,-1.346842 0.603273,-4.082614 0.01403,-0.140296 0.02806,-0.406858 0.02806,-0.406858 z M 41.197798,11.117699 H 38.34979 V 9.6165314 h -0.996102 v 1.5011676 h -2.80592 v 0.911924 h 6.65003 z m -1.72564,3.717844 c 0.294621,-0.617303 0.631332,-1.543256 0.925953,-2.356973 l -0.982072,-0.238503 c -0.168355,0.70148 -0.519095,1.73967 -0.785657,2.385032 z M 36.91877,14.58301 c -0.07015,-0.603273 -0.322681,-1.557286 -0.645361,-2.244736 l -0.869836,0.182385 c 0.294622,0.715509 0.547155,1.655492 0.617303,2.272795 z m 2.679654,3.479341 v 2.581446 h -3.5074 v -2.581446 z m -4.475443,4.321117 h 0.968043 v -0.827747 h 3.5074 v 0.743569 h 1.010131 v -5.162893 h -5.485574 z m -0.939983,-6.467646 h 7.211215 v -0.954013 h -7.211215 z m 12.065456,-5.569751 -0.168355,0.04209 H 41.955397 V 22.36944 h 1.010131 V 11.370231 h 2.651594 c -0.434917,1.122368 -1.05222,2.637565 -1.627433,3.816052 1.416989,1.220575 1.809818,2.258765 1.809818,3.14263 0,0.505066 -0.08418,0.925954 -0.378799,1.108339 -0.168355,0.09821 -0.392829,0.140296 -0.603273,0.154325 -0.294621,0.01403 -0.673421,0.01403 -1.108338,-0.02806 0.182385,0.294622 0.280592,0.743569 0.294621,1.03819 0.406859,0.01403 0.869836,0.01403 1.220576,-0.02806 0.364769,-0.04209 0.659391,-0.140296 0.911924,-0.308651 0.491036,-0.322681 0.68745,-0.968042 0.68745,-1.823848 -0.01403,-0.996102 -0.36477,-2.10444 -1.76773,-3.395163 0.659392,-1.276694 1.374901,-2.890098 1.950115,-4.20888 z" />
    </g>
    <g
       aria-label="Heroku上"
       id="text5535-4"
       style="font-size:14.0296px;line-height:1.25;fill:#b7a7d5;stroke-width:0.35074">
      <path
         id="path27820"
         d="m 133.81724,20.924389 v -5.555721 h 5.21901 v -1.038191 h -5.21901 V 10.03742 h -1.09431 v 10.886969 h -5.23304 v 1.038191 h 12.50038 v -1.038191 z m -14.79881,-2.39654 v -4.644565 h 1.26047 v 4.596612 q 0,1.089212 0.42472,1.637243 0.42473,0.541181 1.27417,0.541181 1.02071,0 1.60985,-0.650787 0.59598,-0.650787 0.59598,-1.774251 v -4.349998 h 1.26047 v 7.672437 h -1.26047 v -1.178267 q -0.45898,0.69874 -1.06866,1.041259 -0.60283,0.33567 -1.40433,0.33567 -1.32213,0 -2.00716,-0.822047 -0.68504,-0.822047 -0.68504,-2.404487 z m 3.17173,-4.829526 z m -10.78252,-2.80181 h 1.26732 v 6.295509 l 3.76087,-3.308738 h 1.60984 l -4.06913,3.589604 4.24039,4.082833 h -1.64409 l -3.89788,-3.747163 v 3.747163 h -1.26732 z m -5.56252,3.870471 q -1.01385,0 -1.60299,0.794645 -0.58913,0.787795 -0.58913,2.164724 0,1.376928 0.58228,2.171574 0.58914,0.787795 1.60984,0.787795 1.00701,0 1.59614,-0.794646 0.58914,-0.794645 0.58914,-2.164723 0,-1.363228 -0.58914,-2.157873 -0.58913,-0.801496 -1.59614,-0.801496 z m 0,-1.068661 q 1.6441,0 2.5826,1.068661 0.9385,1.068661 0.9385,2.959369 0,1.883857 -0.9385,2.959369 -0.9385,1.068661 -2.5826,1.068661 -1.65094,0 -2.58944,-1.068661 -0.93166,-1.075512 -0.93166,-2.959369 0,-1.890708 0.93166,-2.959369 0.9385,-1.068661 2.58944,-1.068661 z m -3.98692,1.363228 q -0.21237,-0.123307 -0.46583,-0.17811 -0.24661,-0.06165 -0.54803,-0.06165 -1.068662,0 -1.644095,0.69874 -0.568582,0.69189 -0.568582,1.993464 v 4.04173 h -1.267322 v -7.672437 h 1.267322 v 1.191968 q 0.397323,-0.69874 1.034409,-1.034409 0.637088,-0.34252 1.548188,-0.34252 0.13016,0 0.28772,0.02055 0.15756,0.0137 0.34937,0.04795 z m -6.514726,2.342834 v 0.616535 h -5.79543 q 0.0822,1.301574 0.780944,1.986613 0.70559,0.678189 1.959212,0.678189 0.726141,0 1.40433,-0.17811 0.685039,-0.178111 1.356377,-0.534331 v 1.191968 q -0.678188,0.287716 -1.390629,0.438425 -0.712441,0.150709 -1.445432,0.150709 -1.835905,0 -2.911416,-1.068661 -1.068661,-1.068661 -1.068661,-2.890865 0,-1.883858 1.013857,-2.986771 1.020709,-1.109763 2.747007,-1.109763 1.548188,0 2.44559,1.000157 0.904251,0.993307 0.904251,2.705905 z m -1.260472,-0.369922 q -0.0137,-1.034409 -0.582283,-1.650944 -0.561732,-0.616535 -1.493385,-0.616535 -1.05496,0 -1.692047,0.595984 -0.630236,0.595984 -0.726141,1.678346 z M 78.286001,11.328088 h 1.383779 v 4.192439 h 5.028187 v -4.192439 h 1.383779 V 21.555721 H 84.697967 V 16.685093 H 79.66978 v 4.870628 h -1.383779 z" />
    </g>
  </g>
</svg>
